<?xml version="1.0" encoding="utf-8"?>
<!-- Generator: Adobe Illustrator 21.0.0, SVG Export Plug-In . SVG Version: 6.00 Build 0)  -->
<svg version="1.1" xmlns="http://www.w3.org/2000/svg" xmlns:xlink="http://www.w3.org/1999/xlink" x="0px" y="0px"
	 viewBox="0 0 100 100" style="enable-background:new 0 0 100 100;" xml:space="preserve">
<style type="text/css">
	.st0{display:none;}
	.st1{fill:#B3B3FC;}
	.st2{fill:#FB5252;}
	.st3{fill:#FFA68F;}
	.st4{fill:#FF8578;}
	.st5{fill:#D7D7FF;}
	.st6{fill:#4949E7;}
	.st7{fill:#C7EBFF;}
	.st8{fill:#5EB2FC;}
	.st9{fill:#2C8CF4;}
	.st10{fill:#92CDFA;}
	.st11{fill:#1273EB;}
	.st12{fill:#E2FFE2;}
	.st13{fill:#8DF690;}
	.st14{fill:#00AF80;}
	.st15{fill:#ABFFAD;}
	.st16{fill:#C7FFC7;}
	.st17{fill:#69E781;}
	.st18{fill:#8080F1;}
	.st19{fill:#2D2DB0;}
	.st20{fill:#202095;}
	.st21{fill:#3636CC;}
	.st22{fill:#0161CD;}
	.st23{fill:#04458F;}
	.st24{fill:#FCD250;}
	.st25{fill:#FFEEB6;}
	.st26{fill:#FFB229;}
	.st27{fill:#5F5FF6;}
	.st28{fill:#2BC48A;}
	.st29{clip-path:url(#SVGID_6_);}
	.st30{fill-rule:evenodd;clip-rule:evenodd;fill:#ABFFAD;}
</style>
<g id="Capa_1" class="st0">
	
		<image style="display:inline;overflow:visible;" width="3264" height="2448" xlink:href="../../../../../../Downloads/IMG_5432.JPG"  transform="matrix(0.1841 0 0 0.1841 23.9851 -142.086)">
	</image>
</g>
<g id="Capa_2">
	<rect class="st4" width="100" height="100"/>
	<path class="st5" d="M75.2,0c0,0-1,11.7-1,19.7s8.5,40-1,50.5c-6.7,7.4-14.5,11.7-21.6,12.3c-1,7-0.5,17.5-0.5,17.5H0L0,0L75.2,0z"
		/>
	<path class="st3" d="M76.5,39.7c-0.4,0-0.7-0.1-1.1-0.1c-4.6,0-8.4,2.8-8.4,6.3c0,3.5,3.8,6.3,8.4,6.3c0.7,0,1.4-0.1,2.1-0.2
		L76.5,39.7z"/>
	<g>
		<path class="st6" d="M58.4,53.2c-1.2,0-2.7-0.3-4.5-1.2c-0.7-0.4-1-1.3-0.7-2s1.3-0.9,2-0.5c1.6,0.8,3.7,1.4,5.2,0.1
			c0.9-0.8,1.3-3.6-1.1-4.3c-0.9-0.2-1.7-0.7-2.4-1.4c-1.9-2-2.2-4-2.2-4.2c-0.1-0.8,0.4-1.6,1.3-1.7c0.8-0.1,1.6,0.4,1.7,1.2
			c0,0.1,0.3,1.4,1.5,2.6c0.2,0.3,0.8,0.5,1.4,0.7c0.9,0.4,2.1,0.9,3.1,1.9c1.1,1,1.1,4.4-0.5,6.5C62.5,51.7,61,53.2,58.4,53.2z"/>
	</g>
	<g>
		<path class="st18" d="M48.9,64c-4.4,0-6.2-3-6.3-3.1c-0.4-0.7-0.2-1.6,0.5-2.1c0.7-0.4,1.6-0.2,2,0.5c0.1,0.1,1.2,1.8,4.1,1.6
			c2.9-0.2,4-1.9,4-2c0.4-0.7,1.3-1,2-0.6c0.7,0.4,1,1.3,0.6,2c-0.1,0.1-1.8,3.3-6.5,3.5C49.3,64,49.1,64,48.9,64z"/>
	</g>
	<ellipse transform="matrix(0.2286 -0.9735 0.9735 0.2286 -34.3567 51.8547)" class="st3" cx="15.5" cy="47.6" rx="5.2" ry="7.6"/>
	<ellipse class="st19" cx="25.8" cy="28.8" rx="2" ry="2.4"/>
	<ellipse class="st19" cx="61.7" cy="26.5" rx="1.9" ry="2.8"/>
	<g>
		<path class="st20" d="M33.3,12.2c-0.2,0-0.4,0-0.6-0.1c0,0-2.7-1-6.3-0.9c-3.5,0.1-5,0.9-5.1,0.9c-0.7,0.4-1.6,0.1-2-0.7
			c-0.4-0.7-0.1-1.6,0.6-2c0.2-0.1,2.1-1.1,6.3-1.2c4.3-0.1,7.4,1.1,7.5,1.1c0.8,0.3,1.1,1.2,0.8,2C34.5,11.9,33.9,12.2,33.3,12.2z"
			/>
	</g>
	<g>
		<path class="st20" d="M57,12.2c-0.2,0-0.4-0.1-0.5-0.2c-0.7-0.4-0.9-1.3-0.5-2.1c0.1-0.2,3.2-5.2,8.2-4.5c0.8,0.1,1.4,0.9,1.3,1.7
			c-0.1,0.8-0.9,1.4-1.7,1.3c-3-0.4-5.2,3.1-5.2,3.1C58.2,12.1,57.6,12.3,57,12.2z"/>
	</g>
	<g>
		<path class="st6" d="M29.2,42.9c-14.6,0-17.1-14.9-17.1-15.1c-0.1-0.8,0.4-1.6,1.3-1.7c0.8-0.1,1.6,0.4,1.7,1.2
			c0.1,0.6,2.3,13.1,15.1,12.5c5.5-0.3,9.5-2.8,12-7.4c1.9-3.6,2.1-7,2.1-7.1c0-0.8,0.7-1.5,1.6-1.4c0.8,0,1.5,0.7,1.4,1.6
			c0,0.2-1,16.6-16.9,17.3C29.9,42.8,29.6,42.9,29.2,42.9z"/>
	</g>
	<path class="st18" d="M75.6,19.6C75.4,14.2,76,8.1,76.4,4.1c0.2-2.3,0.3-3.5,0.3-4.1h-3c0,0,0,0.1,0,0.1c0,0.5-0.1,2.1-0.3,3.8
		c-0.4,4.1-1,10.2-0.7,15.9c0.1,2.3,0.6,5.9,1.1,10.1c1.5,11.3,3.8,28.3,0.5,35.5C70.1,74.5,61.9,80,51.4,81
		c-10.8,1-27.7-3.1-27.9-3.2c-0.8-0.2-1.6,0.3-1.8,1.1c-0.2,0.8,0.3,1.6,1.1,1.8c0.6,0.2,14,3.4,24.8,3.4c1.4,0,2.8-0.1,4-0.2
		c11.7-1.1,20.7-7.3,25.4-17.4c3.7-8,1.4-24.9-0.2-37.2C76.2,25.3,75.7,21.8,75.6,19.6z"/>
	<g>
		<path class="st6" d="M68.6,41.2c-14.2,0-15.9-13.4-15.9-13.6C52.6,26.8,53.2,26,54,26c0.8-0.1,1.6,0.5,1.7,1.3l0,0
			C55.8,27.7,57.3,39,70,38.1c2.9-0.2,5.1-1.2,6.7-3.2c4-4.6,3.3-12,3.3-12.1c-0.1-0.8,0.5-1.6,1.4-1.6c0.8-0.1,1.6,0.5,1.6,1.4
			c0,0.4,0.8,8.7-4,14.3c-2.2,2.5-5.2,4-8.8,4.2C69.6,41.2,69.1,41.2,68.6,41.2z"/>
	</g>
	<g>
		<path class="st21" d="M46.5,25.7c-0.8,0.3-1.8,0-2.2-0.8l-0.1-0.2c-0.2-0.3-4.1-6.9-15-6.9c-10,0-14.6,5.2-15.4,6.2
			c-0.5,0.7-1.3,1.1-2.2,1.1l-3.6,0c-0.9,0-1.7-0.5-2-1.4c-0.4-1.4,0.6-2.6,1.9-2.6l3.1,0c0,0,0,0,0,0c1.9-2.2,7.4-7.3,18.2-7.3
			c10.2,0,15.5,5.1,17.5,7.6c0,0,0,0,0,0c1-0.3,2.3-0.6,3.6-0.5c0.9,0,1.8,0.2,2.5,0.4c0,0,0,0,0,0c1.7-2.8,6.5-8.7,15.8-8.7
			c8.4,0,12.1,1.9,13.7,3.5c0,0,0,0,0,0l1.9-0.2c1.2-0.2,2.2,0.7,2.2,1.9c0,1.1-0.9,1.9-1.9,2.1L82.1,20c-0.9,0.1-1.8-0.3-2.3-1
			c-0.1-0.1-2.1-2.6-11.1-2.6c-7.9,0-11.6,5.2-12.7,7.4c-0.7,1.3-2.2,1.9-3.5,1.4c-0.5-0.2-1.3-0.4-2.2-0.4c-1.2,0-3,0.5-3.5,0.7
			L46.5,25.7z M81.6,16.1C81.6,16.1,81.6,16.1,81.6,16.1L81.6,16.1z"/>
	</g>
</g>
</svg>
