<svg xmlns="http://www.w3.org/2000/svg" xmlns:xlink="http://www.w3.org/1999/xlink" width="90" height="60" viewBox="0 0 90 60">
<defs>
<path id="owe5w40o3a" d="M0 0H90V60H0z"></path>
</defs>
<g fill="none" fill-rule="evenodd">
<g>
<g transform="translate(-24 -3) translate(24 3)">
<mask id="lqdmwbmvtb" fill="#fff">
<use xlink:href="#owe5w40o3a"></use>
</mask>
<g fill="#fff" mask="url(#lqdmwbmvtb)">
<path class="original-logo" d="M80.52 7.086c4.262 0 7.717 3.454 7.717 7.714s-3.455 7.714-7.717 7.714c-4.263 0-7.718-3.454-7.718-7.714s3.455-7.714 7.718-7.714zm-30.155.347c2.885.833 5.22 3.48 5.475 6.5.04.548.15 1.317-.243 1.764-.308.393-.764.556-1.256.552-3.572.01-7.147-.01-10.717.01.211.546.461 1.065.835 1.52 1.207 1.518 3.312 2.172 5.17 1.601.79-.192 1.306-.706 1.967-1.12.473-.159 1.18-.177 1.563.205.636.517.646 1.652.022 2.183-1.947 1.753-4.736 2.2-7.221 1.507-1.627-.467-3-1.546-4.005-2.885-1.517-2.02-1.792-4.891-.925-7.229.572-1.498 1.682-2.798 3.012-3.687 1.83-1.23 4.215-1.487 6.323-.92zm-30.609.18c.567.57.364 1.57.397 2.305.002 3.629-.003 7.262.004 10.889.005.43-.076.839-.37 1.169-.53.644-1.65.654-2.184.005-.317-.332-.336-.739-.354-1.174 0-3.963.005-7.933-.003-11.897.006-.487.032-.934.387-1.304.538-.621 1.586-.616 2.123.007zm51.586.373c.243.449.164.849-.035 1.291-1.788 3.906-3.595 7.818-5.38 11.724-.243.51-.429 1.117-.994 1.358-.357.14-.89.136-1.248-.01-.414-.174-.568-.53-.758-.907-1.683-3.684-3.387-7.361-5.08-11.043-.276-.643-.719-1.266-.635-1.994.009-.394.218-.717.513-.962.651-.529 1.793-.336 2.155.448 1.513 3.206 2.935 6.458 4.466 9.654 1.383-3.104 2.837-6.178 4.233-9.278.166-.341.306-.681.638-.896.738-.463 1.773-.204 2.125.615zM38.186 1.26c.2.3.176.608.187.953l-.008 13.068c-.062 2.76-1.834 5.191-4.253 6.422-1.418.722-3.027.877-4.59.68-2.904-.375-5.451-2.703-6.216-5.504-.359-1.346-.34-2.818.009-4.164.47-1.752 1.616-3.199 3.072-4.25 2.691-1.887 6.568-1.731 9.124.331-.003-2.253 0-4.5-.003-6.756-.019-.472.172-.884.55-1.167.664-.487 1.688-.325 2.128.387zM14.31 8.162c.216.675-.176 1.25-.438 1.847-1.765 3.827-3.521 7.665-5.28 11.496-.17.344-.332.662-.7.83-.385.162-.872.163-1.267.036-.465-.178-.624-.583-.829-.996-1.652-3.605-3.32-7.204-4.97-10.81-.24-.538-.55-1.07-.71-1.638-.16-.645.143-1.343.745-1.634.7-.337 1.615-.076 1.944.65 1.482 3.186 2.936 6.4 4.413 9.589 1.48-3.145 2.903-6.316 4.357-9.47.194-.434.498-.78.984-.878.772-.174 1.505.234 1.751.978zM80.52 10c-2.653 0-4.802 2.149-4.802 4.8s2.15 4.8 4.802 4.8c2.652 0 4.802-2.149 4.802-4.8S83.172 10 80.52 10zm-51.093.206c-1.073.322-2.091 1.015-2.688 1.971-.683 1.05-.988 2.36-.704 3.592.271 1.289 1.091 2.42 2.206 3.117 1.23.747 2.78.915 4.129.396 1.905-.7 3.23-2.64 3.124-4.675-.07-2.162-1.757-4.09-3.88-4.484-.728-.143-1.473-.1-2.187.083zm14.189 3.153c3.063.027 6.129.02 9.193.004-.564-1.631-1.967-2.899-3.67-3.232-2.344-.492-4.799.953-5.523 3.228zM19.835 3.19c.731.615.75 1.834.047 2.474-.66.696-1.846.648-2.459-.087-.811-.861-.44-2.271.626-2.718.624-.164 1.303-.15 1.786.331z" transform="translate(1 16)"></path>
</g>
</g>
</g>
</g>
</svg>