<svg viewBox="0 0 17 13" id="arrow" xmlns="http://www.w3.org/2000/svg" width="100%" height="100%"><path d="M16.934 6.86A.716.716 0 0 0 17 6.532c0-.131-.022-.269-.066-.414a.513.513 0 0 1-.1-.13 1.035 1.035 0 0 0-.1-.153L11.06.26A.96.96 0 0 0 10.395 0a.96.96 0 0 0-.665.261.926.926 0 0 0-.266.654c0 .246.089.464.266.653l4.078 4.007H.953c-.295 0-.528.083-.698.25-.17.167-.255.388-.255.664 0 .29.085.52.255.686.17.167.403.25.698.25h12.855L9.73 11.41a.926.926 0 0 0-.266.654.916.916 0 0 0 .61.871c.125.043.232.065.321.065.103 0 .218-.022.344-.065a.743.743 0 0 0 .321-.218l5.674-5.575.133-.13a.207.207 0 0 0 .067-.153z" fill="#ffffff" fill-rule="evenodd"></path></svg>