<svg viewBox="0 0 470 384" id="logo-small-g" xmlns="http://www.w3.org/2000/svg" width="100%" height="100%"><path d="M253.366 19.98c9.014-7.285 20.79-12.678 32.198-15.486C297.6 1.527 309.881.003 322.157 0c11.47 0 22.933 1.333 34.19 4.07 24.922 6.056 48.658 15.222 69.933 30.365 14.298 10.176 26.87 21.276 35.848 36.075 8.564 14.108 11.35 29.07 2.198 43.6-4.757 7.554-11.813 13.942-18.614 20.025-11.273 10.078-11.957 13.254-2.912 25.654 4.671 6.402 9.514 12.695 14.032 19.196 2.584 3.723 4.248 7.775-.772 12.418-17.064-16.385-35.212-31.184-49.924-48.717-13.459-16.05-21.71-35.636-26.626-56.275-1.882-7.897-5.17-15.686-9.079-22.866-9.458-17.383-34.282-21.22-50.288-9.343-15.34 11.366-17.915 33.06-4.803 48.08 24.84 28.45 49.96 56.658 74.858 85.063 17.81 20.323 36.094 40.303 52.973 61.34 15.276 19.042 24.554 40.954 21.606 65.732-3.142 26.416-13.71 49.338-38.068 63.919-14.188 8.497-25.051 7.484-37.382-3.382-4.404-3.884-8.327-8.6-11.408-13.559-22.372-35.994-44.385-72.195-66.674-108.23-21.877-35.368-44.083-70.543-65.854-105.967-8.16-13.266-13.011-27.885-16.19-43.022-.56-2.695-.965-5.426-1.621-8.094-7.488-30.556 1.388-56.386 25.786-76.102zm-31.958 213.26c9.166-5.54 18.913-8.24 28.36-8.24 16.463 0 32.034 8.192 42.103 23.88 12.342 19.216 23.614 39.12 35.255 58.786 8.022 13.558 16.453 26.928 23.611 40.93 7.489 14.642 1.765 27.593-13.87 32.59-5.886 1.888-12.36 2.655-18.57 2.682-25.004.105-50.014.129-75.02.132h-4.86c-22.793 0-45.57-.018-68.357-.021-11.707 0-23.414.006-35.118.009-36.917.015-73.834.036-110.746-.135-6.207-.03-12.64-1.034-18.523-2.945-3.735-1.217-5.676-3.575-5.673-6.322v-.012c.006-1.82.864-3.812 2.622-5.753 4.185-4.615 9.024-8.96 14.335-12.19 52.851-32.165 105.853-64.088 158.833-96.05 15.178-9.156 30.443-18.17 45.618-27.341z" fill="#EFEFEF" fill-rule="evenodd"></path></svg>